<?xml version="1.0" standalone="no"?>
<!DOCTYPE svg PUBLIC "-//W3C//DTD SVG 20010904//EN"
 "http://www.w3.org/TR/2001/REC-SVG-20010904/DTD/svg10.dtd">
<svg version="1.0" xmlns="http://www.w3.org/2000/svg"
 width="300.000000pt" height="113.000000pt" viewBox="0 0 300.000000 113.000000"
 preserveAspectRatio="xMidYMid meet">
<metadata>
Created by potrace 1.10, written by Peter Selinger 2001-2011
</metadata>
<g transform="translate(0.000000,113.000000) scale(0.100000,-0.100000)"
fill="#000000" stroke="none">
<path d="M1022 971 c-8 -4 -12 -19 -10 -32 2 -19 9 -24 33 -24 33 0 45 25 25
50 -14 17 -29 19 -48 6z"/>
<path d="M1503 959 c-40 -12 -65 -47 -66 -93 -1 -45 16 -64 91 -98 74 -34 96
-66 67 -98 -26 -29 -73 -26 -107 7 -15 15 -28 33 -28 40 0 15 -16 18 -24 5 -3
-5 -3 -25 1 -45 6 -41 36 -57 105 -57 77 0 137 58 123 120 -8 37 -28 53 -108
90 -61 28 -67 33 -67 60 0 64 91 66 120 3 21 -46 40 -42 40 7 0 33 -4 42 -24
50 -42 15 -90 19 -123 9z"/>
<path d="M300 952 c0 -5 9 -12 20 -15 19 -5 20 -14 20 -142 0 -128 -1 -137
-20 -142 -11 -3 -20 -10 -20 -17 0 -7 22 -11 60 -11 38 0 60 4 60 11 0 7 -9
14 -20 17 -19 5 -20 13 -20 124 l1 118 38 -100 c56 -146 69 -175 79 -175 5 0
32 62 60 138 35 93 51 127 52 107 0 -16 3 -67 6 -112 6 -75 4 -83 -15 -95 -38
-23 -23 -33 49 -33 49 0 70 4 70 13 0 6 -6 12 -14 12 -22 0 -26 24 -26 157 0
116 1 125 20 130 40 11 19 23 -39 23 l-58 0 -37 -97 c-20 -54 -40 -107 -45
-117 -6 -15 -18 6 -53 95 l-46 114 -61 3 c-34 2 -61 -1 -61 -6z"/>
<path d="M1740 916 c-5 -14 -21 -32 -35 -42 -28 -18 -33 -34 -10 -34 12 0 15
-15 15 -79 0 -97 11 -128 46 -137 34 -9 78 6 82 27 2 13 -3 15 -24 11 -36 -7
-44 10 -44 101 l0 78 32 -3 c25 -2 33 1 36 16 4 17 0 18 -32 13 l-36 -6 0 40
c0 44 -16 52 -30 15z"/>
<path d="M2597 906 c-9 -19 -25 -37 -36 -41 -25 -8 -27 -22 -5 -27 13 -2 16
-19 18 -89 1 -70 5 -91 20 -108 23 -25 63 -27 94 -5 31 21 27 35 -7 28 -40 -8
-51 16 -51 106 l0 72 35 -6 c31 -6 35 -5 35 14 0 18 -5 21 -32 18 -32 -3 -33
-2 -30 35 4 48 -18 50 -41 3z"/>
<path d="M794 856 c-47 -21 -60 -66 -20 -66 18 0 25 6 28 23 2 16 11 23 31 25
28 3 30 0 41 -49 5 -24 2 -26 -46 -38 -61 -14 -88 -35 -88 -68 0 -53 65 -80
115 -47 15 10 25 12 25 5 0 -16 45 -24 69 -11 27 14 27 30 1 30 -18 0 -20 7
-20 83 0 69 -3 87 -19 101 -26 23 -80 29 -117 12z m86 -145 c0 -34 -20 -54
-52 -49 -33 4 -32 48 2 65 38 20 50 16 50 -16z"/>
<path d="M1028 860 c-45 -14 -54 -22 -30 -31 20 -8 22 -15 22 -89 0 -62 -3
-82 -15 -86 -8 -4 -15 -11 -15 -18 0 -7 22 -11 60 -11 38 0 60 4 60 11 0 7 -7
14 -15 18 -12 4 -15 26 -15 111 0 112 0 111 -52 95z"/>
<path d="M1178 860 c-45 -14 -54 -22 -30 -31 20 -8 22 -15 22 -90 0 -73 -2
-81 -20 -86 -40 -11 -13 -25 48 -26 68 -1 84 6 53 23 -18 9 -21 20 -21 86 0
70 1 75 26 86 45 21 59 2 62 -86 2 -61 0 -77 -13 -82 -8 -3 -15 -11 -15 -18 0
-7 22 -11 60 -11 38 0 60 4 60 11 0 7 -7 14 -15 18 -12 4 -15 24 -15 89 0 74
-3 86 -23 105 -29 28 -67 28 -101 1 l-26 -20 0 20 c0 22 -9 24 -52 11z"/>
<path d="M1898 858 c-39 -10 -48 -22 -24 -31 8 -3 15 -29 18 -72 7 -76 1 -105
-18 -105 -8 0 -14 -6 -14 -12 0 -9 20 -13 67 -12 64 1 95 16 55 26 -28 8 -40
123 -15 150 18 21 39 24 45 6 7 -21 38 0 38 26 0 46 -59 45 -85 -2 l-14 -27
-1 33 c0 17 -3 32 -7 31 -5 -1 -25 -6 -45 -11z"/>
<path d="M2119 847 c-72 -48 -76 -165 -6 -207 50 -31 101 -25 149 18 27 23 11
33 -26 15 -44 -21 -81 -11 -101 27 -24 47 -21 50 65 50 89 0 93 4 65 65 -28
57 -89 71 -146 32z m91 -26 c21 -41 13 -51 -41 -51 -48 0 -50 1 -43 23 3 12
11 28 16 35 16 19 56 14 68 -7z"/>
<path d="M2381 857 c-86 -44 -92 -180 -11 -222 49 -25 96 -18 142 23 26 22 11
34 -22 17 -16 -8 -38 -15 -48 -15 -28 0 -60 30 -68 63 l-6 27 82 0 83 0 -7 33
c-3 17 -20 44 -36 60 -33 29 -70 34 -109 14z m79 -38 c19 -34 6 -47 -44 -47
-50 0 -56 9 -30 46 19 28 60 29 74 1z"/>
<path d="M730 526 c0 -7 9 -16 20 -19 19 -5 20 -14 20 -137 0 -123 -1 -132
-20 -137 -11 -3 -20 -12 -20 -19 0 -11 18 -14 75 -14 57 0 75 3 75 14 0 7 -9
16 -20 19 -17 4 -20 14 -20 61 0 78 18 73 71 -19 l43 -75 48 0 c34 0 48 4 48
14 0 7 -8 16 -19 19 -10 2 -37 32 -60 65 l-41 60 35 35 c55 55 41 116 -33 137
-58 16 -202 13 -202 -4z m180 -36 c42 -42 14 -110 -44 -110 l-31 0 3 65 c4 61
5 65 28 65 13 0 33 -9 44 -20z"/>
<path d="M1597 515 c-50 -34 -71 -78 -71 -145 0 -101 55 -161 153 -168 65 -4
109 19 148 77 50 74 17 208 -61 245 -52 25 -124 21 -169 -9z m145 -22 c46 -41
51 -193 7 -239 -38 -41 -109 -32 -134 17 -19 36 -19 165 -1 198 27 49 87 61
128 24z"/>
<path d="M1099 425 c-30 -16 -59 -70 -59 -110 0 -62 50 -115 110 -115 40 0
100 33 100 55 0 19 -9 19 -34 0 -44 -33 -97 -11 -111 48 l-7 27 80 0 80 0 -9
38 c-4 20 -18 45 -30 55 -26 20 -84 22 -120 2z m91 -31 c16 -41 13 -44 -40
-44 -54 0 -55 1 -39 33 24 45 64 50 79 11z"/>
<path d="M1250 430 c0 -5 7 -13 15 -17 8 -5 34 -53 58 -108 25 -58 49 -100 57
-100 9 0 33 42 58 100 24 55 50 104 58 108 27 15 14 27 -31 27 -48 0 -55 -6
-30 -24 14 -10 14 -15 -1 -51 -9 -22 -21 -51 -26 -65 -9 -24 -11 -22 -34 34
-26 64 -30 86 -14 86 6 0 10 5 10 10 0 6 -27 10 -60 10 -33 0 -60 -4 -60 -10z"/>
<path d="M1903 433 c-25 -5 -32 -33 -8 -33 13 0 15 -22 15 -135 0 -113 -2
-135 -15 -135 -8 0 -15 -7 -15 -15 0 -12 14 -15 65 -15 49 0 65 3 65 14 0 7
-9 16 -20 19 -15 4 -20 14 -20 40 0 35 1 36 34 30 67 -11 126 49 126 127 0 44
-13 77 -39 97 -20 15 -76 17 -102 3 -13 -7 -19 -7 -19 0 0 10 -25 11 -67 3z
m137 -33 c17 0 32 -61 26 -105 -9 -55 -42 -83 -75 -65 -19 9 -21 20 -21 90 0
66 3 79 18 83 9 3 23 3 30 1 8 -2 17 -4 22 -4z"/>
<path d="M2182 417 c-41 -44 -24 -86 49 -121 53 -25 66 -61 26 -71 -31 -8 -63
8 -72 35 -3 11 -13 20 -20 20 -11 0 -13 -8 -8 -32 3 -18 7 -35 9 -37 2 -2 28
-6 57 -9 43 -3 57 0 80 18 23 18 28 29 25 59 -3 33 -8 39 -58 64 -42 21 -55
33 -55 50 0 34 49 36 71 3 22 -34 34 -33 34 3 0 33 -14 41 -74 41 -32 0 -48
-6 -64 -23z"/>
</g>
</svg>
